<?xml version="1.0" encoding="iso-8859-1"?>
<!-- Uploaded to: SVG Repo, www.svgrepo.com, Generator: SVG Repo Mixer Tools -->
<!DOCTYPE svg PUBLIC "-//W3C//DTD SVG 1.1//EN" "http://www.w3.org/Graphics/SVG/1.1/DTD/svg11.dtd">
<svg fill="#000000" version="1.1" id="Capa_1" xmlns="http://www.w3.org/2000/svg" xmlns:xlink="http://www.w3.org/1999/xlink" 
	 width="800px" height="800px" viewBox="0 0 547.516 547.516"
	 xml:space="preserve">
<g>
	<g>
		<circle cx="150.829" cy="43.089" r="43.089"/>
		<circle cx="340.099" cy="284.427" r="33.727"/>
		<path d="M435.729,481.787h-15.94c-8.654,0-15.669,7.014-15.669,15.668v30.166c0,8.654,7.015,15.668,15.669,15.668h30.164
			c8.659,0,15.669-7.01,15.669-15.668v-30.166c0-7.879-5.819-14.406-13.397-15.506c-1.238-0.182-1.253-0.162,0.01-0.162h17.078
			c8.654,0,15.668-7.014,15.668-15.668v-31.307c0-8.654-7.014-15.67-15.668-15.67h-31.308c-8.653,0-15.668,7.016-15.668,15.67
			v31.307c0,7.879,5.823,14.406,13.397,15.506C436.977,481.807,436.986,481.787,435.729,481.787z M447.854,443.742
			c0.908-0.061,1.19-0.133,1.573-0.209c0.88-0.191,1.726-0.584,2.28-1.162c0.373-0.402,0.736-1.047,0.928-1.707
			c0.038-0.152,0.091-0.334,0.134-0.502c0.062-0.283,0.928-0.502,1.927-0.502c1,0,1.817,1.018,1.817,2.281v18.221
			c0,1.262-1.019,2.281-2.281,2.281c-1.262,0-2.28-1.02-2.28-2.281v-11.389c0-1.264-1.019-2.281-2.28-2.281h-1.139
			c-1.262,0-2.28-0.598-2.28-1.344C446.262,444.398,446.979,443.791,447.854,443.742z M438.937,502.738
			c1.301,1.1,1.946,2.572,1.946,4.418c0,1.301-0.383,2.41-1.162,3.309c-0.234,0.264-0.464,0.484-0.698,0.666
			c-0.426,0.334-0.373,0.545,0.091,0.869c0.234,0.162,0.492,0.373,0.789,0.646c1.109,1.027,1.664,2.443,1.664,4.227
			c0,1.873-0.646,3.533-1.946,4.953s-3.218,2.137-5.771,2.137c-3.137,0-5.317-0.775-6.536-2.826
			c-0.311-0.535-0.564-1.242-0.736-1.969c-0.282-1.129,0.626-2.08,1.816-2.08c1.182,0,2.19,0.443,2.291,0.99
			c0.071,0.354,0.162,0.727,0.281,0.965c0.526,1.07,1.492,1.482,2.889,1.482c0.855,0,1.602-0.354,2.242-0.938
			s0.946-1.463,0.946-2.562c0-1.463-0.335-2.453-1.506-2.936c-0.401-0.158-0.903-0.273-1.473-0.34
			c-0.808-0.1-1.473-0.783-1.473-1.654c0-0.855,0.617-1.555,1.372-1.654c0.545-0.072,1.009-0.172,1.334-0.324
			c0.966-0.426,1.319-1.291,1.319-2.602c0-0.846-0.311-1.535-0.808-2.07c-0.492-0.535-1.219-0.799-2.118-0.799
			c-1.028,0-1.798,0.191-2.28,0.838c-0.264,0.354-0.454,0.727-0.574,1.17c-0.182,0.709-1.047,1.301-2.171,1.301
			c-1.118,0-2.027-0.684-1.864-1.525c0.091-0.492,0.234-0.965,0.401-1.473c0.354-0.869,0.918-1.592,1.684-2.328
			c0.573-0.516,1.252-0.879,2.036-1.162c0.784-0.271,1.745-0.393,2.888-0.393C435.929,501.084,437.646,501.639,438.937,502.738z"/>
		<path d="M535.093,497.455c0-8.654-7.015-15.668-15.669-15.668h-30.165c-8.653,0-15.668,7.014-15.668,15.668v30.166
			c0,8.654,7.015,15.668,15.668,15.668h30.165c8.654,0,15.669-7.01,15.669-15.668V497.455z M508.901,523.924h-10.715
			c-1.262,0-2.31-1.027-2.079-2.27c0.172-0.891,0.444-1.564,0.826-2.338c0.627-1.482,2.09-3.17,4.409-4.824
			c2.008-1.445,3.309-2.535,3.906-3.146c0.908-0.967,1.362-2.057,1.362-3.219c0-0.938-0.263-1.734-0.774-2.361
			c-0.526-0.627-1.263-0.938-2.229-0.938c-1.334,0-2.228,0.535-2.706,1.525c-0.152,0.324-0.272,0.799-0.363,1.363
			c-0.119,0.764-1.08,1.4-2.252,1.4c-1.171,0-2.128-1.027-1.907-2.271c0.172-0.947,0.444-1.654,0.808-2.352
			c1.162-2.209,3.228-3.338,6.206-3.338c2.353,0,4.217,0.637,5.608,1.938c1.392,1.299,2.08,3.016,2.08,5.152
			c0,1.646-0.493,3.1-1.473,4.371c-0.646,0.846-1.707,1.787-3.18,2.836l-1.745,1.238c-1.09,0.773-1.846,1.219-2.252,1.572
			c-0.172,0.152-0.335,0.373-0.483,0.584c-0.243,0.344,0.483,0.516,1.745,0.516h5.207c1.263,0,2.28,1.02,2.28,2.281
			C511.172,522.91,510.154,523.924,508.901,523.924z"/>
		<path d="M28.228,253.684c1.913,0.526,3.834,0.779,5.728,0.779c9.443,0,18.102-6.263,20.731-15.802l18.561-67.334l9.854-8.654
			c-12.479,77.547-32.264,201-34.224,216.638c-0.163,1.254,0.736,2.262,1.999,2.262h33.177l-7.425,143.309
			c-0.612,11.863,8.506,21.984,20.373,22.602c0.383,0.018,0.756,0.027,1.133,0.027c11.37,0,20.875-8.912,21.468-20.406l7.54-145.531
			h19.813l23.132,147.75c1.664,10.615,10.815,18.193,21.229,18.193c1.104,0,2.229-0.092,3.356-0.264
			c11.738-1.84,19.766-12.852,17.93-24.59l-22.089-141.094h29.5c1.262,0,2.171-1.01,2.027-2.262l-29.85-211.518l13.593,16.672
			c2.778,3.208,6.436,5.522,10.519,6.656l73.837,20.483c1.927,0.535,3.858,0.789,5.766,0.789c9.429,0,18.078-6.245,20.722-15.769
			c3.175-11.451-3.533-23.309-14.979-26.483l-67.578-18.748l-36.304-44.838c-4.016-4.638-9.505-7.44-15.257-7.368l-0.01-0.067
			l-80.526,0.067c-11.729,0-17.279,4.901-19.895,7.129l-41.76,36.534c-3.285,2.792-5.651,6.507-6.799,10.662l-20.32,73.712
			C10.045,238.68,16.772,250.528,28.228,253.684z"/>
		<path d="M283.756,529.189c-0.324,9.236,6.899,16.986,16.137,17.312c0.201,0.004,0.397,0.01,0.598,0.01
			c8.97,0,16.396-7.109,16.716-16.146l3.127-88.941h13.062l11.747,90.504c1.095,8.439,8.291,14.584,16.572,14.584
			c0.717,0,1.443-0.049,2.175-0.139c9.166-1.191,15.631-9.582,14.439-18.748l-16.591-126.273v-32.168l33.976,36.434
			c2.826,3.074,6.685,4.629,10.558,4.629c3.476,0,6.956-1.258,9.715-3.797c5.824-5.365,6.196-14.439,0.832-20.264l-54.535-58.469
			c-2.156-2.344-4.92-3.764-7.826-4.322c-0.66-0.162-1.344-0.264-2.052-0.283c-0.033,0-0.071-0.008-0.105-0.008
			c-0.043,0-0.086-0.016-0.129-0.016h-54.678c-0.784,0-1.535,0.119-2.262,0.297c-2.883,0.555-5.623,1.951-7.774,4.26l-42.285,45.92
			c-5.403,5.795-5.087,14.869,0.703,20.271c2.764,2.582,6.278,3.859,9.782,3.859c3.839,0,7.669-1.531,10.491-4.557l21.783-23.652
			v41.037L283.756,529.189z"/>
	</g>
</g>
</svg>