<?xml version="1.0" encoding="utf-8"?><!-- Uploaded to: SVG Repo, www.svgrepo.com, Generator: SVG Repo Mixer Tools -->
<svg fill="#000000" width="800px" height="800px" viewBox="0 0 24 24" id="file-folder-done" data-name="Flat Color" xmlns="http://www.w3.org/2000/svg" class="icon flat-color"><path id="secondary" d="M18,2H6A2,2,0,0,0,4,4v7a1,1,0,0,0,1,1H19a1,1,0,0,0,1-1V4A2,2,0,0,0,18,2Z" style="fill: rgb(44, 169, 188);"></path><path id="primary" d="M20,10H11.4L9.7,8.29A1,1,0,0,0,9,8H4a2,2,0,0,0-2,2V20a2,2,0,0,0,2,2H20a2,2,0,0,0,2-2V12A2,2,0,0,0,20,10Z" style="fill: rgb(0, 0, 0);"></path><path id="secondary-2" data-name="secondary" d="M11,19a1,1,0,0,1-.71-.29l-2-2a1,1,0,0,1,1.42-1.42L11,16.59l3.29-3.3a1,1,0,0,1,1.42,1.42l-4,4A1,1,0,0,1,11,19Z" style="fill: rgb(44, 169, 188);"></path></svg>